<?xml version="1.0" encoding="UTF-8"?>
<svg id="_レイヤー_1" data-name="レイヤー 1" xmlns="http://www.w3.org/2000/svg" viewBox="0 0 483.04 428.04">
  <defs>
    <style>
      .cls-1 {
        fill: #3f3f46;
      }
    </style>
  </defs>
  <g>
    <path class="cls-1" d="M413.11,199.3c-1.23-1.91-2.56-3.74-3.77-5.37-17.14-23.02-46.39-43.19-82.36-56.79-6.27-2.37-12.74-4.53-19.32-6.46l63.55-110.07,103.17,178.69h-61.27Z"/>
    <path class="cls-1" d="M371.21,30.62l94.5,163.69h-49.94c-.82-1.19-1.65-2.31-2.43-3.36-17.71-23.78-47.75-44.55-84.6-58.48-4.45-1.68-9-3.26-13.61-4.73l56.07-97.12M371.21,10.62l-71.1,123.15c8.5,2.27,16.91,4.96,25.1,8.06,35.09,13.26,63.54,32.83,80.12,55.1,1.91,2.57,3.62,4.99,4.96,7.39h72.75S371.21,10.62,371.21,10.62h0Z"/>
  </g>
  <g>
    <path class="cls-1" d="M277.7,123.73c-13.9-2.41-27.46-3.63-40.37-3.63-4.11,0-8.18.13-12.09.38-6.01.39-12.44,1.17-19.16,2.34L138.06,5h208.19l-68.55,118.73Z"/>
    <path class="cls-1" d="M337.59,10l-62.48,108.23c-12.98-2.08-25.65-3.13-37.77-3.13-4.22,0-8.39.13-12.41.39-5.15.33-10.59.95-16.24,1.83L146.72,10h190.87M354.91,0h-225.51l74.12,128.37c7.64-1.46,15.05-2.46,22.05-2.91,3.84-.25,7.77-.37,11.77-.37,13.72,0,28.28,1.43,42.94,4.17L354.91,0h0Z"/>
  </g>
  <g>
    <path class="cls-1" d="M138.88,423.04l68.05-117.87c12.46,1.84,24.54,2.77,35.96,2.77,3.22,0,6.42-.08,9.5-.22,7.71-.37,16.03-1.36,24.76-2.94l68.28,118.26h-206.56Z"/>
    <path class="cls-1" d="M274.57,310.29l62.2,107.74h-189.23l62.03-107.45c11.51,1.56,22.69,2.35,33.32,2.35,3.31,0,6.59-.08,9.74-.23,6.9-.33,14.25-1.14,21.93-2.41M279.71,299.2c-9.65,1.9-18.95,3.1-27.56,3.52-3.03.15-6.12.22-9.26.22-12.3,0-25.37-1.12-38.58-3.24l-74.09,128.33h223.88l-74.38-128.84h0Z"/>
  </g>
  <g>
    <path class="cls-1" d="M306.93,297.5c37.86-11.56,83.55-34.12,104.83-65.12.86-1.25,1.62-2.46,2.29-3.64h60.32l-103.57,179.4-63.87-110.63Z"/>
    <path class="cls-1" d="M465.72,233.73l-94.91,164.39-56.43-97.74c37.43-12.31,80.63-34.76,101.51-65.18.34-.5.67-.99.98-1.47h48.85M483.04,223.73h-72.01c-.86,1.82-1.97,3.75-3.39,5.81-19.83,28.88-65.17,52.88-108.22,64.94l71.38,123.64,112.23-194.39h0Z"/>
  </g>
  <g>
    <path class="cls-1" d="M8.66,228.73h58.7c2.48,5.67,6.52,10.9,11.69,16.75,22.23,25.19,55.46,40.07,79.41,48.12,5.83,1.96,11.88,3.75,18.06,5.37l-63.66,110.26L8.66,228.73Z"/>
    <path class="cls-1" d="M64.23,233.73c2.7,5.08,6.48,9.85,11.07,15.06,22.97,26.02,57.03,41.31,81.57,49.55,3.94,1.32,7.97,2.57,12.08,3.74l-56.09,97.14L17.32,233.73h46.91M70.82,223.73H0l112.87,195.49,71.31-123.51c-8.16-1.93-16.25-4.21-24.12-6.86-23.38-7.85-55.75-22.32-77.25-46.69-5.32-6.03-9.95-11.91-11.98-18.44h0Z"/>
  </g>
  <g>
    <path class="cls-1" d="M8.66,199.3L112.46,19.52l63.83,110.55c-11.85,3.66-23.53,8.16-34.81,13.42-29.97,13.97-54.09,31.88-67.91,50.44-1.34,1.8-2.53,3.59-3.58,5.37H8.66Z"/>
    <path class="cls-1" d="M112.46,29.52l56.4,97.69c-10.03,3.35-19.9,7.28-29.49,11.75-30.71,14.31-55.5,32.77-69.8,51.99-.83,1.12-1.62,2.24-2.35,3.36H17.32S112.46,29.52,112.46,29.52M112.46,9.52L0,204.3h72.97c1.18-2.35,2.7-4.8,4.62-7.39,13.33-17.91,36.77-35.27,66.01-48.9,13.1-6.11,26.78-11.16,40.2-14.96L112.46,9.52h0Z"/>
  </g>
  <g>
    <circle class="cls-1" cx="241.52" cy="214.02" r="42.83" transform="translate(-63.52 108.72) rotate(-22.5)"/>
    <path class="cls-1" d="M400.51,200.51c-33.93-45.58-114.34-72.91-174.56-69.04-48.63,3.12-116.37,32.54-143.54,69.04-11.49,15.43-7.13,24.06,4.9,37.69,34.62,39.23,109.62,61.17,164.56,58.52,49.29-2.37,124.57-32.34,150.82-70.57,7.47-10.88,5.33-15.55-2.18-25.64ZM241.52,290.58c-42.22,0-76.57-34.35-76.57-76.57s34.35-76.57,76.57-76.57,76.57,34.35,76.57,76.57-34.35,76.57-76.57,76.57Z"/>
  </g>
</svg>