<?xml version="1.0" encoding="UTF-8"?>
<svg version="1.1" xmlns="http://www.w3.org/2000/svg" width="512" height="512">
<path d="M0 0 C78.87 0 157.74 0 239 0 C236.75000748 6.74997756 236.75000748 6.74997756 235.11499023 9.92114258 C234.56584961 10.99394722 234.56584961 10.99394722 234.00561523 12.08842468 C233.61059814 12.84943985 233.21558105 13.61045502 232.80859375 14.39453125 C232.39174316 15.2059407 231.97489258 16.01735016 231.54541016 16.85334778 C230.18013272 19.50849305 228.80884784 22.16048568 227.4375 24.8125 C226.47951235 26.67281522 225.52191584 28.53333191 224.56469727 30.39404297 C222.15910027 35.0679563 219.74877544 39.73941201 217.33691406 44.41009521 C215.39913654 48.16400836 213.46497375 51.91977875 211.53125 55.67578125 C209.48543459 59.64902393 207.43927974 63.62208865 205.39086914 67.59399414 C201.594194 74.95658558 197.80578813 82.32334658 194.02734375 89.6953125 C193.60363998 90.52195908 193.17993622 91.34860565 192.74339294 92.20030212 C190.60956354 96.36397089 188.47661606 100.52808959 186.34448242 104.69262695 C182.38505172 112.42285667 178.4126991 120.14573604 174.3984375 127.84765625 C174.0416391 128.53316559 173.6848407 129.21867493 173.31723022 129.92495728 C171.6550577 133.1182801 169.98924828 136.30957986 168.31591797 139.49707031 C167.74244629 140.59760742 167.16897461 141.69814453 166.578125 142.83203125 C166.07700195 143.78827393 165.57587891 144.7445166 165.05957031 145.72973633 C163.85902573 147.88449665 163.85902573 147.88449665 164 150 C167.87684087 151.19287411 170.91621923 152 175 152 C175.41660889 151.21165771 175.83321777 150.42331543 176.26245117 149.61108398 C183.8323196 135.30483188 191.45596494 121.0494613 199.48510742 106.99389648 C202.77411439 101.21958919 205.93882925 95.39802089 209 89.5 C212.56035887 82.64018306 216.29161384 75.89839388 220.125 69.1875 C226.78020075 57.52661822 233.08621407 45.69088066 239.37109375 33.828125 C242.53389686 27.85943379 245.74773859 21.9203751 249 16 C252.52584145 17.42210508 253.87801354 18.91842465 255.7421875 22.19921875 C256.24339111 23.06643555 256.74459473 23.93365234 257.26098633 24.82714844 C257.79361084 25.77106445 258.32623535 26.71498047 258.875 27.6875 C260.04152464 29.70786574 261.20954001 31.72737137 262.37890625 33.74609375 C262.97848145 34.78620605 263.57805664 35.82631836 264.19580078 36.89794922 C267.0018451 41.72252284 269.9018182 46.4880466 272.8125 51.25 C273.39008057 52.19681641 273.96766113 53.14363281 274.56274414 54.11914062 C279.62877201 62.41367618 284.73032122 70.68632731 289.82958984 78.96044922 C296.88803492 90.42344521 303.86908006 101.93291351 310.84570312 113.44580078 C316.56146248 122.87719316 322.28771643 132.30222957 328.01269531 141.72802734 C329.2908471 143.83242418 330.56885381 145.93690915 331.84667969 148.04150391 C338.55491654 159.08807926 345.29032462 170.11749178 352.0625 181.125 C353.05842163 182.74462646 353.05842163 182.74462646 354.07446289 184.39697266 C357.33274133 189.68992798 360.60411029 194.97402508 363.90234375 200.2421875 C364.81391235 201.70180908 364.81391235 201.70180908 365.74389648 203.19091797 C366.88928381 205.02309182 368.0383657 206.85296272 369.19165039 208.68017578 C369.69559326 209.48696777 370.19953613 210.29375977 370.71875 211.125 C371.16154297 211.82882813 371.60433594 212.53265625 372.06054688 213.2578125 C373 215 373 215 373 217 C349.735 217.495 349.735 217.495 326 218 C332.93 221.3 339.86 224.6 347 228 C346.67 228.99 346.34 229.98 346 231 C341.71 232.65 337.42 234.3 333 236 C346.2 236.33 359.4 236.66 373 237 C371.26029342 241.34926644 369.25764132 245.18980227 366.875 249.1875 C366.22736694 250.28130981 366.22736694 250.28130981 365.56665039 251.3972168 C360.92199629 259.20084502 356.14637588 266.92433283 351.3762207 274.65161133 C346.40451664 282.70574728 341.47004088 290.78161442 336.5625 298.875 C336.03635101 299.74257935 336.03635101 299.74257935 335.49957275 300.62768555 C333.71732267 303.56675958 331.93564879 306.50618231 330.15429688 309.44580078 C324.43853752 318.87719316 318.71228357 328.30222957 312.98730469 337.72802734 C311.7091529 339.83242418 310.43114619 341.93690915 309.15332031 344.04150391 C302.53215162 354.94470255 295.88102368 365.8285557 289.1875 376.6875 C276.64669541 397.03713304 264.26697093 417.4841411 252 438 C247.73286843 436.49865588 246.58441292 433.96829086 244.56640625 430.05078125 C244.2522023 429.45011841 243.93799835 428.84945557 243.61427307 428.23059082 C242.9390133 426.93719151 242.26886562 425.64111295 241.60333252 424.34268188 C239.84041108 420.90403915 238.04077168 417.4846428 236.24609375 414.0625 C235.88632446 413.37396439 235.52655518 412.68542877 235.15588379 411.97602844 C231.94399197 405.8454622 228.56661634 399.81701107 225.125 393.8125 C220.85605834 386.34266073 216.75710138 378.81216416 212.79394531 371.17626953 C209.62251702 365.10044063 206.27441982 359.13828685 202.875 353.1875 C196.9168381 342.75399694 191.24345224 332.1823598 185.64404297 321.5534668 C182.02119027 314.69336235 178.27519268 307.95726412 174.26318359 301.31713867 C173 299 173 299 173 297 C169.04 297.99 165.08 298.98 161 300 C162.45552353 302.93891879 163.91442571 305.87609169 165.375 308.8125 C165.76816406 309.60720703 166.16132813 310.40191406 166.56640625 311.22070312 C169.51260567 317.13576504 172.56481701 322.9900025 175.65234375 328.83203125 C180.76548817 338.51116548 185.75607221 348.25051416 190.72494507 358.0043335 C193.25116521 362.96273567 195.78168751 367.91894058 198.3125 372.875 C198.80940842 373.84815155 199.30631683 374.8213031 199.81828308 375.82394409 C203.75032492 383.52037351 207.70909357 391.2024388 211.6875 398.875 C214.12594515 403.5828443 216.56351694 408.29113997 219 413 C219.40919678 413.79069885 219.81839355 414.58139771 220.23999023 415.39605713 C223.01596163 420.76168885 225.78685691 426.12990426 228.55264282 431.50079346 C229.47123799 433.28292355 230.39128799 435.06430455 231.31283569 436.84490967 C232.59646917 439.32565989 233.87499944 441.80897577 235.15234375 444.29296875 C235.54214417 445.04355057 235.93194458 445.79413239 236.33355713 446.56745911 C239 451.77191177 239 451.77191177 239 454 C160.13 454 81.26 454 0 454 C1.33947505 449.98157484 2.48245392 446.80560114 4.3984375 443.15625 C4.8713623 442.25165039 5.34428711 441.34705078 5.83154297 440.41503906 C6.5955542 438.97209473 6.5955542 438.97209473 7.375 437.5 C7.90883301 436.48389648 8.44266602 435.46779297 8.99267578 434.42089844 C13.03454777 426.75474734 17.18159783 419.14870839 21.35693359 411.5546875 C25.97588553 403.12020947 30.38231392 394.58082243 34.78637695 386.03271484 C38.45559284 378.92882173 42.20752024 371.87969451 46.0625 364.875 C51.51204575 354.97227728 56.73584826 344.96060724 61.9296875 334.921875 C65.89852658 327.25226102 69.9421878 319.62281518 74 312 C73.43152344 311.93941406 72.86304688 311.87882812 72.27734375 311.81640625 C71.50519531 311.73261719 70.73304688 311.64882813 69.9375 311.5625 C69.18339844 311.48128906 68.42929688 311.40007812 67.65234375 311.31640625 C64.42660504 310.93159795 61.21458005 310.46821913 58 310 C57.54786133 310.85416504 57.09572266 311.70833008 56.62988281 312.58837891 C48.95108046 327.09020923 41.27007052 341.58877396 33.38525391 355.97998047 C29.6016538 362.88720555 25.85628271 369.8143793 22.125 376.75 C21.54024902 377.83627686 20.95549805 378.92255371 20.35302734 380.04174805 C17.38125784 385.56476902 14.41536495 391.09086431 11.45703125 396.62109375 C3.83053396 410.85961233 -3.98309412 424.97746829 -12 439 C-15.20793222 436.03950916 -17.35017447 433.03400499 -19.5390625 429.265625 C-20.19640381 428.14293213 -20.85374512 427.02023926 -21.53100586 425.86352539 C-21.87259735 425.2739505 -22.21418884 424.68437561 -22.56613159 424.07693481 C-24.35807558 420.98517682 -26.17045398 417.90542009 -27.98046875 414.82421875 C-28.33494583 414.2196434 -28.68942291 413.61506805 -29.05464172 412.99217224 C-31.61255132 408.63639296 -34.23264464 404.32821531 -36.9375 400.0625 C-41.46381698 392.90803045 -45.86199877 385.67730445 -50.25 378.4375 C-50.80116486 377.52839371 -50.80116486 377.52839371 -51.36346436 376.60092163 C-53.20942274 373.55601524 -55.05481759 370.51076787 -56.89990234 367.46533203 C-64.82499265 354.38610829 -72.787824 341.33087193 -80.8125 328.3125 C-88.18328281 316.35303484 -95.48403778 304.35222285 -102.76422119 292.33750916 C-105.68362373 287.51999664 -108.60877527 282.70599453 -111.53512573 277.8927002 C-114.70641498 272.67598261 -117.87253058 267.45614219 -121.03710938 262.23535156 C-122.93289393 259.11060817 -124.83352489 255.98885097 -126.734375 252.8671875 C-127.84404392 251.03663647 -128.95343756 249.20591853 -130.0625 247.375 C-130.56950439 246.54548828 -131.07650879 245.71597656 -131.59887695 244.86132812 C-132.05222412 244.11044922 -132.50557129 243.35957031 -132.97265625 242.5859375 C-133.56445679 241.61213135 -133.56445679 241.61213135 -134.16821289 240.61865234 C-135 239 -135 239 -135 237 C-119.49 236.67 -103.98 236.34 -88 236 C-99.42957045 227.89734726 -99.42957045 227.89734726 -111 220 C-111 219.34 -111 218.68 -111 218 C-118.92 217.67 -126.84 217.34 -135 217 C-134.07330366 213.29321465 -133.06244541 211.16097317 -131.11328125 207.94921875 C-130.21113892 206.45430908 -130.21113892 206.45430908 -129.29077148 204.92919922 C-128.63794189 203.85943848 -127.9851123 202.78967773 -127.3125 201.6875 C-126.63840088 200.57391113 -125.96430176 199.46032227 -125.26977539 198.31298828 C-123.18614314 194.87147817 -121.0931337 191.4357394 -119 188 C-117.79401649 186.01447738 -116.58827417 184.02880824 -115.3828125 182.04296875 C-112.50244145 177.30179108 -109.61466955 172.56516396 -106.72509766 167.82958984 C-105.00552721 165.009066 -103.28929913 162.18653731 -101.57421875 159.36328125 C-95.4761801 149.3271424 -89.35009989 139.30913836 -83.1875 129.3125 C-77.61391722 120.26917139 -72.07193981 111.20748564 -66.5625 102.125 C-66.21070679 101.54507294 -65.85891357 100.96514587 -65.49645996 100.36764526 C-62.99649533 96.24579035 -60.49807369 92.12300113 -58 88 C-55.14689186 83.29102439 -52.29313611 78.58244312 -49.4375 73.875 C-49.08734833 73.29778198 -48.73719666 72.72056396 -48.37643433 72.12585449 C-42.49889568 62.4401779 -36.57955025 52.78089757 -30.62817383 43.14038086 C-27.6054996 38.2430326 -24.59386897 33.3403475 -21.625 28.41015625 C-21.11372559 27.56340332 -20.60245117 26.71665039 -20.07568359 25.84423828 C-19.13680591 24.28660513 -18.20196062 22.72653126 -17.27197266 21.16357422 C-14.22209783 16.11104892 -14.22209783 16.11104892 -12 15 C-10.57803877 17.64078515 -9.15607988 20.28157156 -7.73413086 22.92236328 C-6.47717084 25.25669402 -5.22017761 27.59100684 -3.96313477 29.92529297 C-0.77787885 35.84032051 2.40682603 41.75564257 5.58984375 47.671875 C11.74396372 59.10884199 17.90884261 70.53977194 24.10351562 81.95483398 C26.9176392 87.14348091 29.71976292 92.33816534 32.50390625 97.54296875 C39.7906223 111.15536152 47.24922839 124.64594985 55 138 C55.87011719 137.7834375 55.87011719 137.7834375 56.7578125 137.5625 C61.26659675 136.49110572 65.33054247 135.76054064 70 136 C65.33865439 125.66278062 60.26087063 115.64496949 54.77636719 105.72021484 C50.90560854 98.70250773 47.17473376 91.62213043 43.5 84.5 C39.44791047 76.65433703 35.32107664 68.86052923 31.0625 61.125 C25.93619786 51.81203337 21.03178938 42.3941693 16.17163086 32.93994141 C12.00863735 24.86777416 7.70119448 16.88979187 3.19897461 9.00146484 C2.77495361 8.24816895 2.35093262 7.49487305 1.9140625 6.71875 C1.3564624 5.74325195 1.3564624 5.74325195 0.78759766 4.74804688 C0 3 0 3 0 0 Z " fill="#131313" transform="translate(137,30)"/>
<path d="M0 0 C-2.87370089 1.9158006 -5.34495857 2.92523879 -8.5625 4.125 C-23.77125121 10.38850744 -32.70983118 22.27868142 -39 37 C-41.01372628 42.67444062 -41.35188572 47.79938102 -41.3125 53.75 C-41.30686035 54.63816406 -41.3012207 55.52632812 -41.29541016 56.44140625 C-41.17366778 63.02754806 -40.52326718 68.85973005 -38 75 C-37.60941406 75.969375 -37.21882813 76.93875 -36.81640625 77.9375 C-30.62266844 91.69356358 -20.20984006 101.19817299 -6.3828125 107.12109375 C7.62285528 112.0490139 23.84239579 111.58692279 37.34765625 105.48828125 C52.84006712 97.57310004 62.05954911 86.28099087 67.75 69.83203125 C71.48993909 55.98906225 69.22073202 40.86163472 62.8125 28.25 C56.05361707 16.51386436 46.81833564 7.737211 34 3 C37.33646111 1.89570208 39.51454628 2.1244471 42.90234375 2.96875 C43.86479004 3.20674316 44.82723633 3.44473633 45.81884766 3.68994141 C46.84800293 3.95726074 47.8771582 4.22458008 48.9375 4.5 C50.00274902 4.77118652 51.06799805 5.04237305 52.16552734 5.32177734 C61.0247088 7.63086825 69.66768859 10.42838046 78.31640625 13.41796875 C82.19581913 14.7526113 86.09538872 15.88670156 90.0625 16.9375 C95.62873279 18.47787975 100.90076821 20.48065638 106.24609375 22.66015625 C108.0342516 23.38266924 109.82258592 24.10474559 111.61108398 24.82641602 C112.51204803 25.19066681 113.41301208 25.5549176 114.34127808 25.9302063 C118.36448399 27.54902935 122.40103654 29.13335149 126.4375 30.71875 C147.71638335 39.10824563 168.71276225 47.98699119 189.54272461 57.43579102 C193.08543925 59.03865612 196.63780201 60.61767056 200.19921875 62.1784668 C202.18453355 63.08418593 204.12289892 64.06298275 206.0625 65.0625 C208.66690148 66.39306551 211.23783699 67.47908866 214 68.4375 C218.3168989 69.99638016 222.41486494 72.1109151 226 75 C226 75.66 226 76.32 226 77 C224.35 77.33 222.7 77.66 221 78 C221 78.66 221 79.32 221 80 C220.2265625 80.24234375 219.453125 80.4846875 218.65625 80.734375 C213.18095952 82.4962259 207.95652243 84.28429583 202.9140625 87.0703125 C200.35561006 88.3129894 197.70119568 89.11175406 195 90 C191.69945806 91.30753762 188.408661 92.63675299 185.12109375 93.9765625 C182.1727988 94.94333757 180.06813476 95.21711196 177 95 C177 95.66 177 96.32 177 97 C15.41754496 154.34354795 15.41754496 154.34354795 -48.8125 130.125 C-49.49755615 129.8667041 -50.1826123 129.6084082 -50.88842773 129.34228516 C-67.29365372 123.11651623 -67.29365372 123.11651623 -72.625 119.9375 C-76.91455654 117.4749768 -81.38202022 115.74684145 -86 114 C-86 113.34 -86 112.68 -86 112 C-86.804375 111.7525 -87.60875 111.505 -88.4375 111.25 C-93.43398177 109.4968485 -98.26369632 107.36815184 -103 105 C-103 104.34 -103 103.68 -103 103 C-103.72171387 102.89163818 -104.44342773 102.78327637 -105.18701172 102.67163086 C-108.23041907 101.944985 -110.32801215 100.85868519 -113.0078125 99.25390625 C-113.98242432 98.6719751 -114.95703613 98.09004395 -115.96118164 97.49047852 C-117.52727173 96.53612915 -117.52727173 96.53612915 -119.125 95.5625 C-120.2070874 94.90886475 -121.2891748 94.25522949 -122.40405273 93.58178711 C-135.1926461 85.77980273 -147.61056629 77.41702703 -160 69 C-158.76712062 65.30136187 -157.80468696 65.00701527 -154.49609375 63.1015625 C-153.53960937 62.5461377 -152.583125 61.99071289 -151.59765625 61.41845703 C-150.03337891 60.5306958 -150.03337891 60.5306958 -148.4375 59.625 C-146.82875 58.70050049 -146.82875 58.70050049 -145.1875 57.75732422 C-129.45408038 48.76384821 -113.55816739 40.01077988 -97.24902344 32.10009766 C-94.62806398 30.8180695 -92.02198839 29.50755008 -89.4140625 28.19921875 C-66.06714016 16.60495338 -41.83241617 7.58214344 -16.4375 1.6875 C-15.71103271 1.51557129 -14.98456543 1.34364258 -14.23608398 1.16650391 C-9.39472752 0.09685641 -4.95772043 -0.15057194 0 0 Z " fill="#0730B1" transform="translate(216,182)"/>
<path d="M0 0 C0.40202637 0.80928955 0.80405273 1.6185791 1.21826172 2.45239258 C8.60566477 17.31045187 16.01447021 32.14581866 23.82177734 46.7890625 C29.29892845 57.06694904 34.72446317 67.36371644 39.89111328 77.80151367 C42.67892815 83.41117503 45.58135941 88.95747066 48.5 94.5 C52.08020989 101.29885645 55.59281865 108.12221257 58.99414062 115.01220703 C62.14867162 121.37167648 65.48409683 127.63445654 68.85180664 133.88330078 C69.26164795 134.6514209 69.67148926 135.41954102 70.09375 136.2109375 C70.46177734 136.89462402 70.82980469 137.57831055 71.20898438 138.28271484 C72 140 72 140 72 142 C6.33 142 -59.34 142 -127 142 C-117.50478831 123.00957661 -117.50478831 123.00957661 -112.75 113.875 C-112.19626709 112.81007324 -111.64253418 111.74514648 -111.07202148 110.64794922 C-107.00763522 102.86139213 -102.82537342 95.14565617 -98.59082031 87.45068359 C-94.61216808 80.19205024 -90.79100084 72.85811756 -87 65.5 C-82.67821125 57.11249338 -78.29042469 48.77132201 -73.75 40.5 C-69.88606727 33.45366432 -66.03165334 26.40343936 -62.25 19.3125 C-61.81913086 18.51585937 -61.38826172 17.71921875 -60.94433594 16.8984375 C-60.55536133 16.16496094 -60.16638672 15.43148438 -59.765625 14.67578125 C-59.42305664 14.03552002 -59.08048828 13.39525879 -58.72753906 12.7355957 C-57.8067025 10.85252777 -57.8067025 10.85252777 -58 8 C-56.84371094 7.92523438 -55.68742187 7.85046875 -54.49609375 7.7734375 C-41.61852639 6.80278642 -29.11474215 4.64906085 -16.48803711 2.03271484 C-15.21452393 1.77184082 -13.94101074 1.5109668 -12.62890625 1.2421875 C-11.49525635 1.0035498 -10.36160645 0.76491211 -9.19360352 0.51904297 C-6.06592211 0.01071404 -3.16213124 -0.09494455 0 0 Z " fill="#A30606" transform="translate(284,330)"/>
<path d="M0 0 C65.67 0 131.34 0 199 0 C197.68234755 3.29413112 196.3936458 6.32188809 194.79199219 9.45361328 C194.1384375 10.73535934 194.1384375 10.73535934 193.47167969 12.04299927 C192.76640137 13.41776932 192.76640137 13.41776932 192.046875 14.8203125 C191.55509766 15.78299042 191.06332031 16.74566833 190.55664062 17.73751831 C188.95667756 20.86783573 187.35344082 23.99646276 185.75 27.125 C184.64214908 29.29031162 183.53440208 31.45567641 182.42675781 33.62109375 C176.37890242 45.4381046 170.31156219 57.2445493 164.17797852 69.01733398 C160.76512128 75.57368038 157.38710529 82.14678089 154.02734375 88.73046875 C153.136401 90.47461334 152.24545043 92.21875394 151.35449219 93.96289062 C150.04198704 96.53260242 148.73054502 99.10282276 147.42297363 101.67504883 C141.86827808 112.60208465 136.09908877 123.36660592 130 134 C121.50232287 133.01461684 121.50232287 133.01461684 117.625 131.9140625 C116.87629639 131.70692627 116.12759277 131.49979004 115.35620117 131.28637695 C114.57865479 131.06812256 113.8011084 130.84986816 113 130.625 C97.49042131 126.28693945 97.49042131 126.28693945 81.53515625 125.1484375 C67.68361428 125.44330113 67.68361428 125.44330113 63.140625 121.30712891 C59.38214372 116.23108596 57.06202265 110.39896812 54.60986328 104.61425781 C51.85367971 98.42642923 48.57876035 92.51619498 45.36193848 86.55859375 C43.38980357 82.89187001 41.45300373 79.20655653 39.51171875 75.5234375 C35.53706561 67.99980415 31.52590714 60.49634791 27.5 53 C22.11570017 42.96475375 16.74879036 32.92041137 11.40869141 22.86157227 C10.60148543 21.34188841 9.79339523 19.82267387 8.984375 18.30395508 C7.85558468 16.18441609 6.73011279 14.06314753 5.60546875 11.94140625 C5.26972336 11.31246964 4.93397797 10.68353302 4.58805847 10.03553772 C2.8375975 6.72367561 1.39819768 3.4954942 0 0 Z " fill="#D94545" transform="translate(157,42)"/>
<path d="M0 0 C1.68117668 0.00022659 1.68117668 0.00022659 3.39631653 0.00045776 C4.59544174 0.01078033 5.79456696 0.02110291 7.0300293 0.03173828 C8.26593307 0.03456818 9.50183685 0.03739807 10.77519226 0.04031372 C14.04839802 0.0495986 17.32140449 0.06754445 20.59454346 0.08972168 C23.93955653 0.11024261 27.2845783 0.1191581 30.62963867 0.12939453 C37.18375279 0.15143284 43.73773412 0.18489418 50.29174805 0.22705078 C44.05317598 11.7783175 44.05317598 11.7783175 40.8034668 17.00439453 C39.88090088 18.49459106 39.88090088 18.49459106 38.93969727 20.01489258 C37.9692749 21.57397339 37.9692749 21.57397339 36.97924805 23.16455078 C35.55793122 25.46097043 34.13725255 27.75777187 32.7175293 30.05517578 C32.35413452 30.64272141 31.99073975 31.23026703 31.61633301 31.83561707 C27.59685479 38.33990694 23.62968702 44.87571276 19.66674805 51.41455078 C18.94980576 52.59701573 18.23284616 53.77947017 17.51586914 54.96191406 C16.45699566 56.70832566 15.39817459 58.4547689 14.33953857 60.20132446 C9.79657474 67.69559489 5.23694971 75.17971492 0.6784668 82.66455078 C-1.59189691 86.39242385 -3.85996733 90.1216776 -6.1262207 93.85205078 C-12.90792569 105.01174552 -19.71599928 116.15472075 -26.57543945 127.2668457 C-29.76084266 132.42802004 -32.93664483 137.59389075 -36.0763855 142.78294373 C-37.55214786 145.22096172 -39.03311836 147.65579586 -40.51446533 150.09042358 C-41.22390697 151.25976053 -41.93076114 152.43067143 -42.63494873 153.60317993 C-43.6086064 155.22391728 -44.59178089 156.83892611 -45.57543945 158.45361328 C-46.41244385 159.8392749 -46.41244385 159.8392749 -47.26635742 161.25292969 C-47.74218262 161.90438965 -48.21800781 162.55584961 -48.70825195 163.22705078 C-49.36825195 163.22705078 -50.02825195 163.22705078 -50.70825195 163.22705078 C-51.11027832 162.47311035 -51.51230469 161.71916992 -51.92651367 160.94238281 C-59.27260953 147.17447877 -66.65106429 133.43113676 -74.26782227 119.81054688 C-77.36814739 114.24992985 -80.44404639 108.67576013 -83.52075195 103.10205078 C-83.86413605 102.48011841 -84.20752014 101.85818604 -84.56130981 101.21740723 C-89.81306651 91.70194116 -95.00903368 82.15747789 -100.17382812 72.59448242 C-103.52726866 66.39096074 -106.90989046 60.20477713 -110.33325195 54.03955078 C-110.73527832 53.31485596 -111.13730469 52.59016113 -111.55151367 51.84350586 C-113.14683023 48.979703 -114.75500976 46.15155856 -116.48168945 43.36376953 C-117.70825195 41.22705078 -117.70825195 41.22705078 -117.70825195 39.22705078 C-112.22999261 37.39099912 -106.7506969 35.55806525 -101.27075195 33.72705078 C-100.45635651 33.45482697 -99.64196106 33.18260315 -98.80288696 32.90213013 C-87.3612083 29.08005867 -75.90526776 25.3170827 -64.38818359 21.72705078 C-60.52476637 20.51139638 -56.7202782 19.29684988 -53.0090332 17.66845703 C-48.26068606 15.59491846 -43.35453283 14.09651321 -38.42700195 12.50830078 C-34.76245421 11.24572551 -31.2677792 9.75756961 -27.70825195 8.22705078 C-24.84855784 7.16160814 -21.96766336 6.16084483 -19.08325195 5.16455078 C-17.61155127 4.65382948 -16.14018787 4.14213502 -14.66918945 3.62939453 C-14.02771973 3.40759521 -13.38625 3.1857959 -12.7253418 2.95727539 C-10.64309926 2.2335731 -10.64309926 2.2335731 -8.43894958 1.19560242 C-5.4371938 0.13090911 -3.17719598 -0.014344 0 0 Z " fill="#A00303" transform="translate(437.708251953125,279.77294921875)"/>
<path d="M0 0 C0.66 0 1.32 0 2 0 C3.51782227 2.12597656 3.51782227 2.12597656 5.31640625 5.140625 C5.98929687 6.25953125 6.6621875 7.3784375 7.35546875 8.53125 C8.09120332 9.77079921 8.82687874 11.01038354 9.5625 12.25 C10.32735314 13.52650447 11.09298991 14.8025397 11.859375 16.078125 C13.45374245 18.7332085 15.04468898 21.39029716 16.63330078 24.04882812 C19.87919662 29.47514907 23.16563482 34.87669919 26.4526062 40.27819824 C28.22039742 43.1842552 29.9850249 46.09223217 31.75 49 C32.45831847 50.16667569 33.1666518 51.33334236 33.875 52.5 C35.29166667 54.83333333 36.70833333 57.16666667 38.125 59.5 C38.47560989 60.07747482 38.82621979 60.65494965 39.18745422 61.24992371 C39.89594121 62.41684404 40.60442713 63.58376502 41.31291199 64.75068665 C43.08138578 67.66347747 44.8498779 70.57625716 46.6184082 73.48901367 C50.19783811 79.38435426 53.77694382 85.27989129 57.35546875 91.17578125 C60.90697953 97.02707554 64.45942402 102.87780198 68.01269531 108.72802734 C69.2908471 110.83242418 70.56885381 112.93690915 71.84667969 115.04150391 C73.58447514 117.90316322 75.3232791 120.76420684 77.0625 123.625 C77.61333252 124.53185547 78.16416504 125.43871094 78.73168945 126.37304688 C81.9382671 131.64321763 85.17123856 136.89610138 88.42578125 142.13671875 C89.1738204 143.34354159 89.92178639 144.55040978 90.66967773 145.75732422 C92.11610975 148.09147616 93.56830649 150.42190481 95.02368164 152.75048828 C95.67328857 153.79833496 96.32289551 154.84618164 96.9921875 155.92578125 C97.57339355 156.85817627 98.15459961 157.79057129 98.75341797 158.7512207 C100 161 100 161 100 163 C92.2446464 163.1275818 84.48956699 163.21467793 76.73339844 163.2746582 C74.09918097 163.29968295 71.46503211 163.33371334 68.83105469 163.37719727 C65.02782181 163.4383772 61.22551305 163.46633202 57.421875 163.48828125 C56.25887878 163.51408768 55.09588257 163.5398941 53.89764404 163.56648254 C45.60408632 163.56927843 39.39733433 161.6858447 32 158 C31.33059891 157.67663162 30.66119781 157.35326324 29.97151184 157.02009583 C28.32236417 156.20550065 26.69166793 155.35385316 25.0625 154.5 C19.56031351 151.70032233 14.03083687 149.3454163 8.23046875 147.23828125 C5.80829446 146.30982992 3.47400724 145.33440268 1.11328125 144.26953125 C-5.85392809 141.1389134 -12.93539071 138.2768525 -20 135.375 C-21.11335724 134.91694977 -21.11335724 134.91694977 -22.24920654 134.449646 C-35.79723448 128.87661314 -49.38129637 123.3982344 -63 118 C-62.39916261 114.07151603 -61.19147512 111.11645184 -59.296875 107.6328125 C-58.73564941 106.59479492 -58.17442383 105.55677734 -57.59619141 104.48730469 C-56.98694824 103.37774414 -56.37770508 102.26818359 -55.75 101.125 C-55.11209247 99.95235234 -54.47456556 98.77949756 -53.83740234 97.60644531 C-49.33464443 89.33889206 -44.70410981 81.1455478 -40.03808594 72.96923828 C-35.1855415 64.42403301 -30.57795759 55.75699667 -25.9798584 47.07345581 C-20.44740541 36.63222207 -14.73350909 26.30904308 -8.8671875 16.05078125 C-5.83460821 10.74219349 -2.90964262 5.37673695 0 0 Z " fill="#BC2323" transform="translate(387,71)"/>
<path d="M0 0 C6.8084781 -0.28252421 13.61541098 -0.47299829 20.4284668 -0.60424805 C22.73796031 -0.65904087 25.04708193 -0.73370946 27.35522461 -0.82983398 C43.75440913 -1.4949061 54.35945251 0.13215573 67 11 C67.99 11.99 67.99 11.99 69 13 C53.82 13.33 38.64 13.66 23 14 C28.78275983 23.83069171 34.55471168 33.62539503 40.5625 43.3125 C41.94732293 45.55425468 43.33162584 47.79631829 44.71484375 50.0390625 C45.2413855 50.89255531 45.2413855 50.89255531 45.77856445 51.76329041 C49.75782285 58.21952806 53.6930613 64.70237318 57.625 71.1875 C58.34155259 72.36897795 59.05810532 73.55045582 59.7746582 74.73193359 C61.17778632 77.04576833 62.58066002 79.35975712 63.98339844 81.67382812 C71.89788841 94.72794573 79.83648164 107.76486103 87.89331055 120.73168945 C92.50265715 128.16421749 97.03476942 135.64265042 101.5625 143.125 C108.24455329 154.16706875 115.04899935 165.12483135 122 176 C122.48243164 175.08524902 122.96486328 174.17049805 123.46191406 173.22802734 C132.38831539 156.30823576 141.34958926 139.41339609 150.55371094 122.64257812 C153.19750168 117.8119922 155.81658361 112.9680231 158.4375 108.125 C159.23740356 106.64785522 159.23740356 106.64785522 160.0534668 105.14086914 C162.90713886 99.87027211 165.7575334 94.59791771 168.60546875 89.32421875 C169.19465088 88.23415527 169.78383301 87.1440918 170.39086914 86.02099609 C171.51993085 83.93200144 172.6480711 81.84250841 173.77514648 79.75244141 C174.28505127 78.80933105 174.79495605 77.8662207 175.3203125 76.89453125 C175.76648926 76.06800049 176.21266602 75.24146973 176.67236328 74.38989258 C178.06028575 71.89147899 179.51651058 69.44267487 181 67 C187.3469717 68.02565132 193.43112525 69.3338248 199.5625 71.26953125 C203.3322818 72.39925753 207.14954955 73.19264749 211 74 C211 73.34 211 72.68 211 72 C215.62 72 220.24 72 225 72 C223.46347638 76.60957085 221.94814462 80.24291564 219.68359375 84.4609375 C219.35561798 85.0751355 219.02764221 85.6893335 218.68972778 86.32214355 C217.60991027 88.34207496 216.52366462 90.35847561 215.4375 92.375 C214.67064504 93.80718814 213.90429662 95.2396476 213.13842773 96.67236328 C211.54836485 99.64592144 209.95613638 102.61830408 208.36230469 105.58984375 C205.09293347 111.68875448 201.84800564 117.80061027 198.60397339 123.9130249 C197.55432919 125.89039255 196.50394771 127.86736692 195.45336914 129.84423828 C191.78139607 136.75469236 188.11543823 143.66829144 184.45703125 150.5859375 C184.07360062 151.31082367 183.69016998 152.03570984 183.29512024 152.78256226 C181.48031061 156.21371472 179.66623145 159.6452487 177.85375977 163.07763672 C170.62528418 176.74912742 163.30326961 190.36723007 156 204 C254.01 204.495 254.01 204.495 354 205 C350.04 197.41 346.08 189.82 342 182 C339.11926977 176.41952782 336.24234952 170.83732505 333.375 165.25 C332.6050507 163.75094049 331.835029 162.25191816 331.06494141 160.75292969 C329.87660701 158.4397856 328.68832838 156.12661306 327.50033569 153.81329346 C324.54241263 148.05380792 321.57930174 142.29700941 318.61399841 136.5413208 C316.81191706 133.04279497 315.01161118 129.5433758 313.21508789 126.04199219 C312.46761533 124.58528407 311.72013802 123.12857839 310.97265625 121.671875 C310.59182388 120.92959656 310.21099152 120.18731812 309.81861877 119.42254639 C306.95570618 113.84767841 304.07446096 108.28247169 301.18865967 102.71942139 C298.94379819 98.38731067 296.70734175 94.05089218 294.472229 89.71374512 C293.36899083 87.57753716 292.26219727 85.44316149 291.15179443 83.31066895 C289.5984662 80.32636509 288.05767188 77.3359031 286.51953125 74.34375 C286.04656113 73.44231262 285.573591 72.54087524 285.08628845 71.61212158 C284.66311844 70.78299255 284.23994843 69.95386353 283.80395508 69.09960938 C283.42966873 68.37688843 283.05538239 67.65416748 282.66975403 66.9095459 C282 65 282 65 283 62 C284.74480197 61.58184918 286.49622557 61.19126018 288.25 60.8125 C289.22453125 60.59207031 290.1990625 60.37164062 291.203125 60.14453125 C294 60 294 60 296.359375 61.44921875 C296.90078125 61.96097656 297.4421875 62.47273438 298 63 C297.34 63 296.68 63 296 63 C297.45450488 65.93940939 298.91442997 68.87610025 300.375 71.8125 C300.76816406 72.60720703 301.16132813 73.40191406 301.56640625 74.22070312 C304.51260567 80.13576504 307.56481701 85.9900025 310.65234375 91.83203125 C315.76548817 101.51116548 320.75607221 111.25051416 325.72494507 121.0043335 C328.25116521 125.96273567 330.78168751 130.91894058 333.3125 135.875 C334.05786263 137.33472733 334.05786263 137.33472733 334.81828308 138.82394409 C338.75032492 146.52037351 342.70909357 154.2024388 346.6875 161.875 C349.12594515 166.5828443 351.56351694 171.29113997 354 176 C354.40919678 176.79069885 354.81839355 177.58139771 355.23999023 178.39605713 C358.01596163 183.76168885 360.78685691 189.12990426 363.55264282 194.50079346 C364.47123799 196.28292355 365.39128799 198.06430455 366.31283569 199.84490967 C367.59646917 202.32565989 368.87499944 204.80897577 370.15234375 207.29296875 C370.73704437 208.41884148 370.73704437 208.41884148 371.33355713 209.56745911 C374 214.77191177 374 214.77191177 374 217 C295.13 217 216.26 217 135 217 C136.33947505 212.98157484 137.48245392 209.80560114 139.3984375 206.15625 C139.8713623 205.25165039 140.34428711 204.34705078 140.83154297 203.41503906 C141.34088379 202.45307617 141.85022461 201.49111328 142.375 200.5 C142.90883301 199.48389648 143.44266602 198.46779297 143.99267578 197.42089844 C148.03454777 189.75474734 152.18159783 182.14870839 156.35693359 174.5546875 C160.97588553 166.12020947 165.38231392 157.58082243 169.78637695 149.03271484 C173.45559284 141.92882173 177.20752024 134.87969451 181.0625 127.875 C186.51204575 117.97227728 191.73584826 107.96060724 196.9296875 97.921875 C200.89852658 90.25226102 204.9421878 82.62281518 209 75 C208.43152344 74.93941406 207.86304688 74.87882812 207.27734375 74.81640625 C206.11912109 74.69072266 206.11912109 74.69072266 204.9375 74.5625 C203.80634766 74.44068359 203.80634766 74.44068359 202.65234375 74.31640625 C199.42660504 73.93159795 196.21458005 73.46821913 193 73 C192.54786133 73.85416504 192.09572266 74.70833008 191.62988281 75.58837891 C183.95108046 90.09020923 176.27007052 104.58877396 168.38525391 118.97998047 C164.6016538 125.88720555 160.85628271 132.8143793 157.125 139.75 C156.24787354 141.37941528 156.24787354 141.37941528 155.35302734 143.04174805 C152.38125784 148.56476902 149.41536495 154.09086431 146.45703125 159.62109375 C138.83053396 173.85961233 131.01690588 187.97746829 123 202 C119.79206778 199.03950916 117.64982553 196.03400499 115.4609375 192.265625 C114.80359619 191.14293213 114.14625488 190.02023926 113.46899414 188.86352539 C113.12740265 188.2739505 112.78581116 187.68437561 112.43386841 187.07693481 C110.64192442 183.98517682 108.82954602 180.90542009 107.01953125 177.82421875 C106.66505417 177.2196434 106.31057709 176.61506805 105.94535828 175.99217224 C103.38744868 171.63639296 100.76735536 167.32821531 98.0625 163.0625 C93.53618302 155.90803045 89.13800123 148.67730445 84.75 141.4375 C84.38255676 140.83142914 84.01511353 140.22535828 83.63653564 139.60092163 C81.79057726 136.55601524 79.94518241 133.51076787 78.10009766 130.46533203 C70.17500735 117.38610829 62.212176 104.33087193 54.1875 91.3125 C46.81671719 79.35303484 39.51596222 67.35222285 32.23577881 55.33750916 C29.31637627 50.51999664 26.39122473 45.70599453 23.46487427 40.8927002 C20.29358502 35.67598261 17.12746942 30.45614219 13.96289062 25.23535156 C12.06710607 22.11060817 10.16647511 18.98885097 8.265625 15.8671875 C7.15595608 14.03663647 6.04656244 12.20591853 4.9375 10.375 C4.43049561 9.54548828 3.92349121 8.71597656 3.40112305 7.86132812 C2.94777588 7.11044922 2.49442871 6.35957031 2.02734375 5.5859375 C1.63281006 4.9367334 1.23827637 4.2875293 0.83178711 3.61865234 C0 2 0 2 0 0 Z " fill="#010000" transform="translate(2,267)"/>
<path d="M0 0 C6.7030106 -0.23074537 13.40497628 -0.38684616 20.11108398 -0.49438477 C22.38556171 -0.5392726 24.65978538 -0.60040868 26.93334961 -0.67895508 C42.00609874 -1.18613137 51.96784439 -0.34573093 64 9 C66.15921224 10.4264443 68.35512589 11.77256645 70.5625 13.125 C71.61824219 13.77726562 72.67398438 14.42953125 73.76171875 15.1015625 C78.21369633 17.71152764 82.8021867 19.97828137 87.44140625 22.234375 C90.95799893 23.97916083 94.37811715 25.84930668 97.8125 27.75 C114.32744742 36.66684079 131.61374999 43.63869077 149.58105469 49.00756836 C151.21155762 49.51235718 151.21155762 49.51235718 152.875 50.02734375 C153.84179688 50.31343506 154.80859375 50.59952637 155.8046875 50.89428711 C158 52 158 52 158.94750977 53.85522461 C159.01442829 56.58954666 158.31697874 57.91560916 156.96484375 60.2890625 C156.49240234 61.1346875 156.01996094 61.9803125 155.53320312 62.8515625 C154.74333008 64.22441406 154.74333008 64.22441406 153.9375 65.625 C152.82055636 67.61659439 151.70471607 69.60880787 150.58984375 71.6015625 C150.00058105 72.64731445 149.41131836 73.69306641 148.80419922 74.77050781 C145.8021546 80.14412706 142.90540854 85.57371634 140 91 C135.21682785 99.90181498 130.40080539 108.78475471 125.55004883 117.64990234 C122.8091262 122.66497481 120.08798865 127.69000581 117.38671875 132.7265625 C116.77119141 133.87382812 116.15566406 135.02109375 115.52148438 136.203125 C114.33985998 138.40781716 113.16003211 140.61347361 111.98242188 142.8203125 C108.14671241 149.97668918 104.13550983 157.0127099 100 164 C97.73622205 161.0723052 95.74042124 158.05959508 93.8046875 154.90625 C92.86749878 153.38197388 92.86749878 153.38197388 91.91137695 151.8269043 C90.90337036 150.18008667 90.90337036 150.18008667 89.875 148.5 C89.16440574 147.34214295 88.45371043 146.18434791 87.74291992 145.02661133 C82.2074604 136.00283857 76.71479409 126.95315745 71.22894287 117.89916992 C66.69028997 110.40914977 62.12317688 102.93820052 57.5 95.5 C52.46988683 87.40570164 47.50381821 79.2736767 42.5625 71.125 C42.20028351 70.52770081 41.83806702 69.93040161 41.46487427 69.31500244 C39.66008462 66.33850979 37.85582321 63.36169729 36.05175781 60.38476562 C33.01750034 55.37917952 29.97909881 50.37612819 26.9375 45.375 C26.38408936 44.46435791 25.83067871 43.55371582 25.26049805 42.61547852 C22.09957109 37.42197394 18.91695496 32.2424203 15.71484375 27.07421875 C14.98507699 25.89471284 14.25534052 24.71518818 13.52563477 23.53564453 C12.13022959 21.28026254 10.73036937 19.02786207 9.32788086 16.77685547 C8.3728064 15.23408936 8.3728064 15.23408936 7.3984375 13.66015625 C6.83817871 12.75918213 6.27791992 11.85820801 5.70068359 10.92993164 C3.63127526 7.36476233 1.80457382 3.70459901 0 0 Z " fill="#BF2626" transform="translate(24,280)"/>
<path d="M0 0 C3.22761029 2.72433037 4.90399477 6.27051509 6.80859375 9.95703125 C7.35250763 10.99284081 7.35250763 10.99284081 7.90740967 12.04957581 C8.68466251 13.53096956 9.45945663 15.01365547 10.23202515 16.49749756 C12.26344488 20.39865039 14.31277985 24.29038751 16.359375 28.18359375 C16.76363205 28.95386902 17.1678891 29.72414429 17.58439636 30.51776123 C20.72792171 36.50205658 23.93165848 42.45099549 27.1875 48.375 C30.41815911 54.25689117 33.62467671 60.1503704 36.78515625 66.0703125 C37.11146027 66.68148926 37.43776428 67.29266602 37.7739563 67.92236328 C39.0909772 70.38999085 40.40763415 72.85781182 41.72351074 75.3260498 C45.93166712 83.21480318 50.21569572 91.03665054 54.77734375 98.7265625 C56 101 56 101 56 103 C55.34854004 103.21503174 54.69708008 103.43006348 54.02587891 103.65161133 C11.33622237 117.84054217 -32.23138992 136.98522172 -69.41064453 162.66503906 C-72.61075247 164.31487785 -74.80723144 164.34397301 -78.39453125 164.29296875 C-79.59658203 164.28330078 -80.79863281 164.27363281 -82.03710938 164.26367188 C-83.28298828 164.23853516 -84.52886719 164.21339844 -85.8125 164.1875 C-87.07771484 164.17396484 -88.34292969 164.16042969 -89.64648438 164.14648438 C-92.76475643 164.11118318 -95.88216042 164.06186819 -99 164 C-95.91210087 157.5606006 -92.37083189 151.51407173 -88.625 145.4375 C-87.3671022 143.38416683 -86.10929215 141.33077991 -84.8515625 139.27734375 C-84.2112207 138.23433105 -83.57087891 137.19131836 -82.91113281 136.11669922 C-79.92820198 131.25209842 -76.96459367 126.37578906 -74 121.5 C-72.83343674 119.58327039 -71.6667698 117.66660389 -70.5 115.75 C-69.9225 114.80125 -69.345 113.8525 -68.75 112.875 C-67 110 -65.25 107.125 -63.5 104.25 C-62.92266113 103.3014917 -62.34532227 102.3529834 -61.75048828 101.37573242 C-60.5822766 99.45657407 -59.41398216 97.5374661 -58.24560547 95.6184082 C-55.35190114 90.86527121 -52.45957955 86.1113045 -49.5703125 81.35546875 C-43.47282995 71.32239351 -37.34862798 61.3066329 -31.1875 51.3125 C-25.38289525 41.89530378 -19.61435908 32.45706162 -13.875 23 C-13.52110199 22.41699127 -13.16720398 21.83398254 -12.80258179 21.23330688 C-8.51468702 14.16769957 -4.2443175 7.09187233 0 0 Z " fill="#DF4C4C" transform="translate(123,70)"/>
<path d="M0 0 C1.58622852 0.38406714 3.16879096 0.78326436 4.75 1.1875 C5.63171875 1.40792969 6.5134375 1.62835938 7.421875 1.85546875 C11.56328501 3.18017741 15.49522184 4.8346391 19.49707031 6.5300293 C23.31502381 8.13219671 27.1537158 9.67454829 31 11.20703125 C51.71237406 19.48748174 72.16714387 28.23518774 92.49438477 37.41967773 C96.0567057 39.02556278 99.62724541 40.61136236 103.20581055 42.18066406 C105.18861313 43.08613222 107.12496518 44.06418198 109.0625 45.0625 C111.66690148 46.39306551 114.23783699 47.47908866 117 48.4375 C121.3168989 49.99638016 125.41486494 52.1109151 129 55 C129 55.66 129 56.32 129 57 C126.525 57.495 126.525 57.495 124 58 C124 58.66 124 59.32 124 60 C123.2265625 60.24234375 122.453125 60.4846875 121.65625 60.734375 C116.18095952 62.4962259 110.95652243 64.28429583 105.9140625 67.0703125 C103.35561006 68.3129894 100.70119568 69.11175406 98 70 C94.69945806 71.30753762 91.408661 72.63675299 88.12109375 73.9765625 C85.1727988 74.94333757 83.06813476 75.21711196 80 75 C80 75.66 80 76.32 80 77 C47.73643823 88.44992568 15.47031744 99.76241303 -17.5625 108.8125 C-18.77140396 109.14767639 -18.77140396 109.14767639 -20.00473022 109.48962402 C-22.27241784 110.11506017 -24.54341279 110.72619983 -26.81640625 111.33203125 C-27.48751434 111.51778214 -28.15862244 111.70353302 -28.85006714 111.89491272 C-32.21379258 112.77051956 -34.70219777 113.28475689 -38 112 C-37.31035156 111.5875 -36.62070312 111.175 -35.91015625 110.75 C-14.22840349 97.42568554 -2.09801761 78.2958127 4.08984375 53.9609375 C7.96524064 37.5936316 6.62553238 20.03474268 0.8046875 4.29296875 C0 2 0 2 0 0 Z " fill="#B7B7B7" transform="translate(313,202)"/>
<path d="M0 0 C-1.66775881 4.31733597 -3.75971693 8.21892669 -6.125 12.1875 C-6.55675537 12.91670654 -6.98851074 13.64591309 -7.43334961 14.3972168 C-12.07800371 22.20084502 -16.85362412 29.92433283 -21.6237793 37.65161133 C-26.59548336 45.70574728 -31.52995912 53.78161442 -36.4375 61.875 C-36.78826599 62.45338623 -37.13903198 63.03177246 -37.50042725 63.62768555 C-39.28267733 66.56675958 -41.06435121 69.50618231 -42.84570312 72.44580078 C-48.56146248 81.87719316 -54.28771643 91.30222957 -60.01269531 100.72802734 C-61.2908471 102.83242418 -62.56885381 104.93690915 -63.84667969 107.04150391 C-70.46784838 117.94470255 -77.11897632 128.8285557 -83.8125 139.6875 C-96.35330459 160.03713304 -108.73302907 180.4841411 -121 201 C-125.26713157 199.49865588 -126.41558708 196.96829086 -128.43359375 193.05078125 C-128.7477977 192.45011841 -129.06200165 191.84945557 -129.38572693 191.23059082 C-130.0609867 189.93719151 -130.73113438 188.64111295 -131.39666748 187.34268188 C-133.15958892 183.90403915 -134.95922832 180.4846428 -136.75390625 177.0625 C-137.11367554 176.37396439 -137.47344482 175.68542877 -137.84411621 174.97602844 C-141.05600803 168.8454622 -144.43338366 162.81701107 -147.875 156.8125 C-152.14394166 149.34266073 -156.24289862 141.81216416 -160.20605469 134.17626953 C-163.37748298 128.10044063 -166.72558018 122.13828685 -170.125 116.1875 C-176.0831619 105.75399694 -181.75654776 95.1823598 -187.35595703 84.5534668 C-190.97880973 77.69336235 -194.72480732 70.95726412 -198.73681641 64.31713867 C-200 62 -200 62 -200 60 C-201.32 59.67 -202.64 59.34 -204 59 C-203.01 58.505 -203.01 58.505 -202 58 C-202 57.34 -202 56.68 -202 56 C-198.04 55.01 -194.08 54.02 -190 53 C-185.69669343 60.06051497 -181.65449135 67.21260288 -177.75 74.5 C-173.93344856 81.58386943 -170.10781191 88.66044717 -166.1875 95.6875 C-161.8370673 103.49058523 -157.50568711 111.30403285 -153.1875 119.125 C-152.84462952 119.74590515 -152.50175903 120.3668103 -152.14849854 121.00653076 C-146.87184691 130.56602379 -141.65032671 140.15410994 -136.47070312 149.76660156 C-132.91680909 156.34963849 -129.28997059 162.88655307 -125.53735352 169.35864258 C-123 173.78647848 -123 173.78647848 -123 176 C-120.18421544 173.4715404 -118.42317351 170.62408558 -116.48046875 167.390625 C-116.14552399 166.83604111 -115.81057922 166.28145721 -115.46548462 165.71006775 C-114.36884696 163.89240746 -113.27823184 162.07120918 -112.1875 160.25 C-111.42128252 158.97799099 -110.65459416 157.70626551 -109.88745117 156.43481445 C-108.33045838 153.85357934 -106.77536847 151.27121336 -105.22167969 148.68798828 C-102.10477802 143.50929352 -98.95921665 138.34811531 -95.8125 133.1875 C-94.67045534 131.31257161 -93.52852777 129.4375719 -92.38671875 127.5625 C-91.82774902 126.6446875 -91.2687793 125.726875 -90.69287109 124.78125 C-88.98784176 121.980025 -87.28468995 119.17766647 -85.58203125 116.375 C-79.48077576 106.33533135 -73.35256015 96.31312926 -67.1875 86.3125 C-59.10237154 73.19410266 -51.10403503 60.02407909 -43.11816406 46.84515381 C-39.98019848 41.66699674 -36.84079769 36.48971108 -33.70016479 31.31317139 C-32.58479239 29.47425352 -31.47022855 27.63484736 -30.35571289 25.79541016 C-29.6827417 24.68601074 -29.00977051 23.57661133 -28.31640625 22.43359375 C-27.72287354 21.45447021 -27.12934082 20.47534668 -26.51782227 19.46655273 C-25.38219726 17.6210936 -24.20196808 15.80295212 -23 14 C-40.82 13.67 -58.64 13.34 -77 13 C-77 12.67 -77 12.34 -77 12 C-76.07054565 11.75672974 -76.07054565 11.75672974 -75.12231445 11.50854492 C-70.74091488 10.28934031 -66.74954229 9.00336526 -62.79296875 6.73828125 C-43.55835503 -3.72380339 -21.19149251 -0.80032428 0 0 Z " fill="#010000" transform="translate(510,267)"/>
<path d="M0 0 C3.52584145 1.42210508 4.87801354 2.91842465 6.7421875 6.19921875 C7.49399292 7.50004395 7.49399292 7.50004395 8.26098633 8.82714844 C8.79361084 9.77106445 9.32623535 10.71498047 9.875 11.6875 C11.04152464 13.70786574 12.20954001 15.72737137 13.37890625 17.74609375 C14.27826904 19.30626221 14.27826904 19.30626221 15.19580078 20.89794922 C18.0018451 25.72252284 20.9018182 30.4880466 23.8125 35.25 C24.39008057 36.19681641 24.96766113 37.14363281 25.56274414 38.11914062 C30.62877201 46.41367618 35.73032122 54.68632731 40.82958984 62.96044922 C47.88803492 74.42344521 54.86908006 85.93291351 61.84570312 97.44580078 C67.56146248 106.87719316 73.28771643 116.30222957 79.01269531 125.72802734 C80.2908471 127.83242418 81.56885381 129.93690915 82.84667969 132.04150391 C89.55491654 143.08807926 96.29032462 154.11749178 103.0625 165.125 C104.05842163 166.74462646 104.05842163 166.74462646 105.07446289 168.39697266 C108.33274133 173.68992798 111.60411029 178.97402508 114.90234375 184.2421875 C115.51005615 185.21526855 116.11776855 186.18834961 116.74389648 187.19091797 C117.88928381 189.02309182 119.0383657 190.85296272 120.19165039 192.68017578 C120.69559326 193.48696777 121.19953613 194.29375977 121.71875 195.125 C122.16154297 195.82882813 122.60433594 196.53265625 123.06054688 197.2578125 C124 199 124 199 124 201 C117.01654331 201.28412225 110.03462387 201.47363579 103.04663086 201.60424805 C100.68115608 201.65881254 98.31603805 201.7332948 95.9519043 201.82983398 C77.69443504 202.55547623 64.74194163 199.38227346 49 190 C49 189.67 49 189.34 49 189 C66.49 189 83.98 189 102 189 C98.7 183.72 95.4 178.44 92 173 C89.30324595 168.58853199 86.61371045 164.17383325 83.9375 159.75 C83.20845042 158.54680405 82.47928049 157.34368101 81.75 156.140625 C80.24547283 153.65848035 78.74144664 151.17603326 77.23779297 148.69335938 C74.01451931 143.37234418 70.78485149 138.05521274 67.55545044 132.73791504 C65.78668471 129.82544806 64.01836574 126.91270985 62.25 124 C61.54166879 122.83333204 60.83333546 121.66666538 60.125 120.5 C58.70833333 118.16666667 57.29166667 115.83333333 55.875 113.5 C55.52439011 112.92252518 55.17378021 112.34505035 54.81254578 111.75007629 C54.10405879 110.58315596 53.39557287 109.41623498 52.68708801 108.24931335 C50.91861422 105.33652253 49.1501221 102.42374284 47.3815918 99.51098633 C43.8021619 93.61564574 40.22305236 87.72011103 36.64453125 81.82421875 C33.10634983 75.99480847 29.56689256 70.16617418 26.02685547 64.33789062 C24.03909106 61.06437641 22.05271937 57.79001997 20.06640625 54.515625 C18.83600608 52.48954168 17.6055407 50.46349797 16.375 48.4375 C15.55962769 47.0920813 15.55962769 47.0920813 14.7277832 45.71948242 C11.34866433 40.16005095 7.87341317 34.67623519 4.30712891 29.23461914 C3 27 3 27 3 25 C2.34 25 1.68 25 1 25 C0.73227783 25.70527832 0.46455566 26.41055664 0.1887207 27.13720703 C-1.05628988 30.13556277 -2.48820076 32.94211607 -4.01953125 35.8046875 C-4.62273193 36.93310059 -5.22593262 38.06151367 -5.84741211 39.22412109 C-6.50221862 40.44120062 -7.15725376 41.65815716 -7.8125 42.875 C-8.14702179 43.49836243 -8.48154358 44.12172485 -8.82620239 44.76397705 C-13.76273123 53.96027975 -18.83478782 63.06955581 -24.01293945 72.13232422 C-28.49202239 80.01066866 -32.75906124 87.99208306 -37 96 C-41.95569941 105.3535785 -46.97621768 114.66014853 -52.1875 123.875 C-52.70376953 124.78894531 -53.22003906 125.70289063 -53.75195312 126.64453125 C-56.71238426 131.84581712 -59.79334901 136.94674012 -63 142 C-71.89453125 140.32421875 -71.89453125 140.32421875 -75 137 C-74.68998047 136.46036621 -74.37996094 135.92073242 -74.06054688 135.36474609 C-67.172169 123.34517845 -60.48132622 111.24235342 -54 99 C-48.7679413 89.11858933 -43.41272749 79.32918208 -37.86328125 69.62109375 C-33.27616041 61.56538647 -28.90273012 53.40091306 -24.55178833 45.21630859 C-19.61494619 35.93529431 -14.53748015 26.74689856 -9.29882812 17.6328125 C-5.98833399 11.85134824 -2.91576222 5.99039097 0 0 Z " fill="#010000" transform="translate(386,46)"/>
<path d="M0 0 C-0.26554687 0.73863281 -0.53109375 1.47726563 -0.8046875 2.23828125 C-8.9508722 25.63626432 -7.92665556 49.25514057 2 72 C2.35707031 72.84949219 2.71414062 73.69898438 3.08203125 74.57421875 C10.61379032 91.10150632 24.08990978 103.2519812 39 113 C32.43831025 115.18722992 24.66233492 111.00451069 18.65234375 108.16796875 C14.46667449 106.3247948 10.15716654 104.80797542 5.84692383 103.28198242 C2.50667336 102.06805738 -0.57985174 100.74802573 -3.65234375 98.953125 C-6.55440003 97.25997664 -9.31020699 95.94950965 -12.4375 94.75 C-13.30246094 94.41484375 -14.16742188 94.0796875 -15.05859375 93.734375 C-15.69925781 93.49203125 -16.33992188 93.2496875 -17 93 C-17 92.34 -17 91.68 -17 91 C-17.804375 90.7525 -18.60875 90.505 -19.4375 90.25 C-24.43398177 88.4968485 -29.26369632 86.36815184 -34 84 C-34 83.34 -34 82.68 -34 82 C-34.72171387 81.89163818 -35.44342773 81.78327637 -36.18701172 81.67163086 C-39.23041907 80.944985 -41.32801215 79.85868519 -44.0078125 78.25390625 C-44.98242432 77.6719751 -45.95703613 77.09004395 -46.96118164 76.49047852 C-48.52727173 75.53612915 -48.52727173 75.53612915 -50.125 74.5625 C-51.2070874 73.90886475 -52.2891748 73.25522949 -53.40405273 72.58178711 C-66.1926461 64.77980273 -78.61056629 56.41702703 -91 48 C-89.76712062 44.30136187 -88.80468696 44.00701527 -85.49609375 42.1015625 C-84.53960937 41.5461377 -83.583125 40.99071289 -82.59765625 40.41845703 C-81.03337891 39.5306958 -81.03337891 39.5306958 -79.4375 38.625 C-77.82875 37.70050049 -77.82875 37.70050049 -76.1875 36.75732422 C-60.45784798 27.76600184 -44.56609065 19.0082709 -28.25976562 11.10107422 C-25.50516814 9.75889243 -22.76127984 8.39553464 -20.015625 7.03515625 C-17.90667748 6.00173133 -15.79730328 4.96917669 -13.6875 3.9375 C-12.67743896 3.43524902 -11.66737793 2.93299805 -10.62670898 2.41552734 C-9.68126221 1.95742676 -8.73581543 1.49932617 -7.76171875 1.02734375 C-6.91569092 0.61218506 -6.06966309 0.19702637 -5.19799805 -0.23071289 C-3 -1 -3 -1 0 0 Z " fill="#BFBFC0" transform="translate(147,203)"/>
<path d="M0 0 C-2.87370089 1.9158006 -5.34495857 2.92523879 -8.5625 4.125 C-14.12761188 6.3820369 -18.26603123 9.26587874 -22.74609375 13.23046875 C-27.07418489 16.62843285 -31.74067715 17.41820149 -37.03515625 18.36328125 C-41.87003058 19.31698716 -45.88419409 20.72574414 -50.22265625 23.0625 C-52 24 -52 24 -54.6875 25 C-57.178168 25.93798032 -57.178168 25.93798032 -59.4375 28.125 C-62.6009856 30.43974556 -64.17566755 30 -68 30 C-70.84920053 31.87769142 -70.84920053 31.87769142 -73 34 C-72.79365677 32.34925414 -72.57544607 30.69931232 -72.30493164 29.05786133 C-72.01130171 27.07627074 -71.87538558 25.07326938 -71.74609375 23.07421875 C-70.95622739 20.01879484 -70.30029586 19.18632158 -67.58007812 17.49853516 C-64.23892166 16.09933331 -60.88363598 14.92855848 -57.4375 13.8125 C-55.59490601 13.17707275 -55.59490601 13.17707275 -53.71508789 12.52880859 C-50.15462478 11.31445599 -46.58225926 10.14822709 -43 9 C-42.12601563 8.71463379 -41.25203125 8.42926758 -40.3515625 8.13525391 C-32.48044603 5.5882224 -24.49415573 3.55760316 -16.4375 1.6875 C-15.71103271 1.51557129 -14.98456543 1.34364258 -14.23608398 1.16650391 C-9.39472752 0.09685641 -4.95772043 -0.15057194 0 0 Z " fill="#0B236E" transform="translate(216,182)"/>
<path d="M0 0 C5.86870395 0.6290287 11.46664955 1.6830526 17.1875 3.125 C18.04682129 3.34019287 18.90614258 3.55538574 19.79150391 3.77709961 C27.15326872 5.67585644 34.3458826 7.98488597 41.52368164 10.48510742 C45.43412175 11.84274016 49.29126774 13.12730137 53.328125 14.0546875 C62.30846347 16.14270859 62.30846347 16.14270859 64.515625 18.87890625 C65.94336075 22.40281768 66 25.17456649 66 29 C58.35445532 28.37331601 58.35445532 28.37331601 56.62353516 26.55029297 C54.74993582 24.76121691 53.4699203 24.32722482 50.98046875 23.68359375 C50.20509766 23.47669922 49.42972656 23.26980469 48.63085938 23.05664062 C47.82455078 22.85232422 47.01824219 22.64800781 46.1875 22.4375 C44.59729063 22.02092447 43.00743853 21.60298239 41.41796875 21.18359375 C40.65814697 20.98475586 39.8983252 20.78591797 39.11547852 20.58105469 C36.37329661 19.82786451 33.69453051 18.90718434 31 18 C30.18917969 17.81179687 29.37835938 17.62359375 28.54296875 17.4296875 C22.33016345 15.96663882 18.98198867 13.47678343 14.44921875 9.07421875 C10.16230145 5.44367156 5.09896693 3.27771111 0 1 C0 0.67 0 0.34 0 0 Z " fill="#0C2677" transform="translate(250,184)"/>
<path d="M0 0 C-2.3442623 5.2295082 -2.3442623 5.2295082 -5 7 C-7.71815286 7.2529766 -10.25911949 7.1347974 -13 7 C-13 7.66 -13 8.32 -13 9 C-17.76323242 11.23580297 -21.71748901 12.41305433 -27 13 C-28.66934283 13.31966139 -30.3373217 13.64731066 -32 14 C-27.26046663 7.81227588 -27.26046663 7.81227588 -23 7 C-21.60048031 6.53170947 -20.20476176 6.05194721 -18.8125 5.5625 C-14.89709834 4.22932191 -11.00758987 3.29175078 -6.9453125 2.52734375 C-4.27005097 1.80212225 -2.82931595 0 0 0 Z " fill="#0A2B95" transform="translate(189,197)"/>
<path d="M0 0 C4.46917019 0.92220972 8.81430179 1.87241377 13.125 3.375 C19.63525981 5.63792453 26.33313613 7.26960187 33 9 C33 9.33 33 9.66 33 10 C25.89660358 10.32953901 20.00510954 9.98570409 13.26953125 7.66796875 C10.05964441 6.72323441 7.3214833 6.78338152 4 7 C2.02 3.535 2.02 3.535 0 0 Z " fill="#0A2FA5" transform="translate(272,199)"/>
<path d="M0 0 C-0.33 1.32 -0.66 2.64 -1 4 C-1.33 3.67 -1.66 3.34 -2 3 C-10.75369178 4.70172857 -18.9831106 7.437708 -27.046875 11.1953125 C-29 12 -29 12 -31 12 C-31 11.34 -31 10.68 -31 10 C-23.58957331 5.91841058 -16.11705064 3.32241 -8 1 C-5.07175348 0.02391783 -3.04386724 -0.08226668 0 0 Z " fill="#D3D3D3" transform="translate(142,214)"/>
<path d="M0 0 C2.10464793 0.30924214 4.2087053 0.6225056 6.3125 0.9375 C7.48425781 1.11152344 8.65601563 1.28554687 9.86328125 1.46484375 C13 2 13 2 16 3 C16 3.66 16 4.32 16 5 C18.97 5.495 18.97 5.495 22 6 C18.18243176 7.37432457 14.92744671 6.67975039 11 6 C11 5.34 11 4.68 11 4 C8.03 3.67 5.06 3.34 2 3 C1.67 3.66 1.34 4.32 1 5 C0.67 3.35 0.34 1.7 0 0 Z " fill="#CFCFCF" transform="translate(317,213)"/>
<path d="M0 0 C-3.90762032 3.67776031 -5.78339646 4 -11 4 C-13.84920053 5.87769142 -13.84920053 5.87769142 -16 8 C-16 6.35 -16 4.7 -16 3 C-3.003861 -1.5019305 -3.003861 -1.5019305 0 0 Z " fill="#0D287E" transform="translate(159,208)"/>
<path d="M0 0 C7.03645577 1.88619822 14.03359344 3.86927695 21 6 C21 6.33 21 6.66 21 7 C14.04959741 7.64654908 7.36711836 5.75908462 1 3 C0.67 2.01 0.34 1.02 0 0 Z " fill="#0C2C93" transform="translate(284,202)"/>
<path d="M0 0 C-1.15173355 2.46800047 -2.04783565 4.04783565 -4 6 C-4.70125 5.855625 -5.4025 5.71125 -6.125 5.5625 C-9.99175115 4.80596173 -13.11122998 5.40679779 -17 6 C-14.59425724 3.59425724 -13.36435997 3.54303718 -10.0625 3 C-6.45909231 2.40562347 -3.35661812 0 0 0 Z " fill="#0B2A8B" transform="translate(189,197)"/>
<path d="M0 0 C5.625 -0.25 5.625 -0.25 9 2 C10.19625 2.33 11.3925 2.66 12.625 3 C13.73875 3.33 14.8525 3.66 16 4 C16.33 4.66 16.66 5.32 17 6 C13.37 5.34 9.74 4.68 6 4 C6 3.34 6 2.68 6 2 C3.03 1.505 3.03 1.505 0 1 C0 0.67 0 0.34 0 0 Z " fill="#C3C3C3" transform="translate(333,217)"/>
<path d="M0 0 C-0.99 0 -1.98 0 -3 0 C-3 0.66 -3 1.32 -3 2 C-7.455 2.495 -7.455 2.495 -12 3 C-12.33 2.34 -12.66 1.68 -13 1 C-11.59054634 0.43983252 -10.1719969 -0.09748502 -8.75 -0.625 C-7.96109375 -0.92664063 -7.1721875 -1.22828125 -6.359375 -1.5390625 C-3.50082285 -2.09752136 -2.41040161 -1.53690745 0 0 Z " fill="#424242" transform="translate(309,326)"/>
<path d="M0 0 C2.97 0.33 5.94 0.66 9 1 C9 1.66 9 2.32 9 3 C7.68 3 6.36 3 5 3 C4.67 3.66 4.34 4.32 4 5 C3.01 4.67 2.02 4.34 1 4 C0.67 2.68 0.34 1.36 0 0 Z " fill="#0733BF" transform="translate(277,205)"/>
<path d="M0 0 C4.95 0.99 4.95 0.99 10 2 C10 2.66 10 3.32 10 4 C7.36 3.67 4.72 3.34 2 3 C1.67 3.66 1.34 4.32 1 5 C0.67 3.35 0.34 1.7 0 0 Z " fill="#D8D8D9" transform="translate(317,213)"/>
<path d="M0 0 C-3.7559214 3.42931954 -8.23466745 4.56429083 -13 6 C-13 5.34 -13 4.68 -13 4 C-11.40233897 3.13372601 -9.79660056 2.28233535 -8.1875 1.4375 C-7.29417969 0.96183594 -6.40085937 0.48617187 -5.48046875 -0.00390625 C-3 -1 -3 -1 0 0 Z " fill="#CECECE" transform="translate(124,220)"/>
<path d="M0 0 C-0.33 1.32 -0.66 2.64 -1 4 C-1.33 3.67 -1.66 3.34 -2 3 C-4.31 3.66 -6.62 4.32 -9 5 C-9.33 4.34 -9.66 3.68 -10 3 C-6.48812804 0.59185923 -4.27343092 -0.36629408 0 0 Z " fill="#DCDCDC" transform="translate(142,214)"/>
<path d="M0 0 C-3.28463659 2.18975773 -6.20696275 2.99806563 -10 4 C-10 3.34 -10 2.68 -10 2 C-10.66 1.67 -11.32 1.34 -12 1 C-8.0186217 -0.3271261 -4.14954773 -0.06915913 0 0 Z " fill="#051958" transform="translate(216,182)"/>
<path d="M0 0 C0.66 0.33 1.32 0.66 2 1 C2 1.99 2 2.98 2 4 C-0.64 4.33 -3.28 4.66 -6 5 C-5.195625 4.360625 -4.39125 3.72125 -3.5625 3.0625 C-1.7249496 1.59396498 -1.7249496 1.59396498 0 0 Z " fill="#6D717E" transform="translate(281,310)"/>
<path d="M0 0 C1.48117801 0.28127421 2.95993249 0.57533732 4.4375 0.875 C5.67306641 1.11863281 5.67306641 1.11863281 6.93359375 1.3671875 C7.61550781 1.57601562 8.29742187 1.78484375 9 2 C9.33 2.66 9.66 3.32 10 4 C7.36 4 4.72 4 2 4 C1.34 2.68 0.68 1.36 0 0 Z " fill="#0C2C92" transform="translate(272,199)"/>
</svg>
