<?xml version="1.0" encoding="UTF-8"?>
<svg id="_レイヤー_1" data-name="レイヤー 1" xmlns="http://www.w3.org/2000/svg" viewBox="0 0 483.04 428.04">
  <defs>
    <style>
      .cls-1 {
        fill: #3f3f46;
      }
    </style>
  </defs>
  <g>
    <g>
      <polygon class="cls-1" points="8.66 228.73 217.08 228.73 112.87 409.23 8.66 228.73"/>
      <path class="cls-1" d="M208.42,233.73l-95.55,165.49L17.32,233.73h191.1M225.74,223.73H0l112.87,195.49,112.87-195.49h0Z"/>
    </g>
    <g>
      <polygon class="cls-1" points="138.06 5 346.25 5 242.15 185.3 138.06 5"/>
      <path class="cls-1" d="M337.59,10l-95.43,165.3L146.72,10h190.87M354.91,0h-225.51l112.76,195.3L354.91,0h0Z"/>
    </g>
    <g>
      <polygon class="cls-1" points="8.66 199.3 112.46 19.52 216.26 199.3 8.66 199.3"/>
      <path class="cls-1" d="M112.46,29.52l95.14,164.78H17.32S112.46,29.52,112.46,29.52M112.46,9.52L0,204.3h224.92S112.46,9.52,112.46,9.52h0Z"/>
    </g>
    <g>
      <polygon class="cls-1" points="138.88 423.04 242.15 244.15 345.43 423.04 138.88 423.04"/>
      <path class="cls-1" d="M242.15,254.15l94.62,163.88h-189.23l94.62-163.88M242.15,234.15l-111.94,193.88h223.88l-111.94-193.88h0Z"/>
    </g>
    <g>
      <polygon class="cls-1" points="267.23 228.73 474.38 228.73 370.8 408.13 267.23 228.73"/>
      <path class="cls-1" d="M465.72,233.73l-94.91,164.39-94.91-164.39h189.83M483.04,223.73h-224.47l112.23,194.39,112.23-194.39h0Z"/>
    </g>
    <g>
      <polygon class="cls-1" points="268.05 199.3 371.21 20.62 474.38 199.3 268.05 199.3"/>
      <path class="cls-1" d="M371.21,30.62l94.5,163.69h-189.01S371.21,30.62,371.21,30.62M371.21,10.62l-111.82,193.69h223.65S371.21,10.62,371.21,10.62h0Z"/>
    </g>
  </g>
  <g>
    <path class="cls-1" d="M400.51,200.51c-33.93-45.58-114.34-72.91-174.56-69.04-48.63,3.12-116.37,32.54-143.54,69.04-11.49,15.43-7.13,24.06,4.9,37.69,34.62,39.23,109.62,61.17,164.56,58.52,49.29-2.37,124.57-32.34,150.82-70.57,7.47-10.88,5.33-15.55-2.18-25.64ZM240.89,181.98c-.38,0-.75.01-1.12.02.38,0,.75-.02,1.12-.02Z"/>
    <path d="M405.33,196.92c-16.58-22.27-45.03-41.83-80.12-55.1-32.7-12.36-69.02-18.32-99.65-16.35-24.75,1.59-54.62,9.81-81.97,22.55-29.23,13.62-52.67,30.99-66.01,48.9-14.69,19.73-6.33,32.17,5.22,45.25,21.5,24.36,53.88,38.83,77.25,46.69,27.03,9.08,56.68,14.08,82.83,14.08,3.14,0,6.23-.07,9.26-.22,51.48-2.48,128-33.14,155.49-73.17,9.81-14.29,5.46-22.2-2.31-32.63ZM397.73,222.74c-24.76,36.07-97.59,65.63-146.16,67.97-51.82,2.5-125.75-17.95-159.76-56.5-11.53-13.07-13.4-18.29-4.59-30.13,26.99-36.25,93.72-63.72,139.11-66.63,54.97-3.53,135.34,20.94,169.36,66.63,6.85,9.2,7.41,10.83,2.04,18.65Z"/>
  </g>
  <g>
    <path d="M241.52,137.45c-42.22,0-76.57,34.35-76.57,76.57s34.35,76.57,76.57,76.57,76.57-34.35,76.57-76.57-34.35-76.57-76.57-76.57Z"/>
    <circle class="cls-1" cx="241.52" cy="214.02" r="42.83"/>
  </g>
</svg>