<?xml version="1.0" encoding="UTF-8"?>
<svg id="Layer_2" data-name="Layer 2" xmlns="http://www.w3.org/2000/svg" viewBox="0 0 600.45 274.63">
  <defs>
    <style>
      .cls-1 {
        fill-rule: evenodd;
      }
    </style>
  </defs>
  <path d="M122.03.1s-.04,0-.06,0c.01,0,.02,0,.04,0,0,0,.02,0,.02,0Z"/>
  <path d="M121.78.04s.04.02.05.02c-.02,0-.04-.01-.05-.02Z"/>
  <path d="M121.84.06s.09.03.14.03c-.05,0-.1-.01-.14-.03Z"/>
  <path d="M122.24.05c-.06.03-.13.05-.2.05.07,0,.14-.02.2-.05Z"/>
  <path d="M121.73,0s0,0,0,0c.02.01.03.02.05.03-.02-.01-.03-.03-.05-.04Z"/>
  <g>
    <path d="M427.96,117.15h0s0,.04,0,.06c0-.02,0-.04,0-.06Z"/>
    <path d="M309,100.54c38.97,5.7,77.69,13.3,116.25,21.38l-.06-.34c-.29-1.63-.33-3.31-.19-4.88-18.09-2.74-36.18-5.42-54.03-8.42-19.23-3.17-40.82-7.25-61.96-11.17v3.44Z"/>
    <path d="M549.42,83.72l2.27-.9c-3.62-3.84-7.67-7.24-11.74-10.09,0,0-.49.63-.49.63,3.48,3.13,6.91,6.6,9.97,10.36Z"/>
    <path d="M559.68,120.81c-.81,0-1.62-.03-2.43-.08-5.02,6.15-14.02,7.14-21.62,8.11-20.19,1.64-40.62-1.08-60.62-4.13.13.59.13,1.21,0,1.81-.15.66-.46,1.26-.88,1.77l1.35,2.57-1.05.55.24.46c6.43,1.08,12.87,2.01,19.21,2.62,16.81,1.5,61.13,5.94,69.13-13.83-1.1.09-2.22.14-3.33.14Z"/>
    <path d="M260.91,88.74c-32.31-4.59-64.96-6.77-97.63-6.24-7.79.17-15.78.64-23.79,1.5l3.62,8.26c20.53-2.07,41.33-2.01,61.92-1.35,18.69.56,37.32,1.85,55.89,3.69v-5.85Z"/>
    <path d="M86.66,96.85c-28.5,12.19-50.67,33.65-54.82,69.84-1.64,14.05-.26,28.25,2.73,41.98,0,0,.79-.14.79-.14-1.63-13.71-1.95-27.68.53-41.24,5.11-29.41,23.1-50.02,50.14-61.69.07-.03.14-.06.21-.09l.43-8.67Z"/>
  </g>
  <g>
    <g>
      <path d="M559.94,107.66c-1.1,0-2.18-.21-3.2-.61l-13.37-5.3v8.55c0,4.15,7.42,7.51,16.57,7.51s16.58-3.36,16.58-7.51v-8.55l-13.37,5.3c-1.02.41-2.1.61-3.2.61Z"/>
      <path d="M585.69,93.09l-23.46-9.3c-1.47-.58-3.11-.58-4.59,0l-23.45,9.3c-.55.22-.91.75-.91,1.34s.36,1.12.91,1.34l3.28,1.3v9.31c-.73.5-1.21,1.33-1.21,2.28,0,.87.4,1.65,1.03,2.15l-1,4.8c-.13.64.03,1.31.44,1.82.42.51,1.04.81,1.7.81h1.19c.66,0,1.28-.3,1.7-.81.42-.51.58-1.18.44-1.82l-1-4.8c.63-.51,1.03-1.28,1.03-2.15,0-.95-.48-1.79-1.21-2.28v-8.08l16.99,6.73c1.52.6,3.22.6,4.74,0l23.38-9.27c.55-.22.91-.75.91-1.34,0-.59-.36-1.12-.91-1.34Z"/>
    </g>
    <g>
      <path d="M472.13,124.88l-18.51-24.68c-.36-.47-1.01-.62-1.53-.34l-21.46,11.3,19.99,26.65,21.12-11.12c.31-.17.54-.46.62-.8.08-.35,0-.71-.21-.99Z"/>
      <polygon points="471.38 128.99 450.45 139.96 450.77 140.56 471.69 129.59 471.38 128.99"/>
      <polygon points="450.17 143.62 471.78 132.29 471.46 131.69 449.85 143.02 450.17 143.62"/>
      <path d="M471.79,133.78l-23.08,12.1c-.7.18-.54-.37-.54-1.23.07-2.3.63-4.32,1.25-4.98l-19.98-26.65c-.89,1.07-1.66,4.4-1.03,8.03l19.74,26.31c.14.19.4.25.61.14l23.17-12.27c.21-.11.35-.31.38-.54.03-.23-.05-.46-.22-.63l-.3-.29Z"/>
    </g>
    <g id="Page-1">
      <g id="Icon-Set-Filled">
        <path id="camera" class="cls-1" d="M301,82.46h-3.95l-1.32-2.63c-.77-1.53-1.18-2.63-2.63-2.63h-15.78c-1.45,0-1.93,1.25-2.63,2.63l-1.32,2.63h-3.95c-2.91,0-5.26,2.36-5.26,5.26v21.05c0,2.91,2.36,5.26,5.26,5.26h31.57c2.91,0,5.26-2.36,5.26-5.26v-21.05c0-2.91-2.36-5.26-5.26-5.26ZM285.22,108.77c-5.81,0-10.52-4.71-10.52-10.52s4.71-10.52,10.52-10.52,10.52,4.71,10.52,10.52-4.71,10.52-10.52,10.52ZM285.22,90.35c-4.36,0-7.89,3.53-7.89,7.89s3.53,7.89,7.89,7.89,7.89-3.53,7.89-7.89-3.53-7.89-7.89-7.89h0Z"/>
      </g>
    </g>
    <path d="M142.18,97.03l-5.5-12.55c-2.63-5.54-8.66-8.62-14.7-7.51l-20.81,3.83c-6.04,1.11-10.57,6.13-11.06,12.25l-.67,13.68c-.1,3.91,2.76,7.26,6.64,7.78l.19.02c3.59.48,7.02-1.62,8.23-5.03l1.95-4.46c.46-1.29,1.57-2.24,2.92-2.49l12.69-2.33c1.35-.25,2.73.24,3.62,1.29l3.41,3.47c2.34,2.76,6.3,3.5,9.48,1.77l.17-.09c3.44-1.86,4.92-6.01,3.44-9.63ZM107.46,94.33l-4.32.79.79,4.32-3.76.69-.79-4.32-4.32.79-.69-3.76,4.32-.79-.79-4.32,3.76-.69.79,4.32,4.32-.79.69,3.76h0ZM124.85,81.85c1.31-.24,2.56.62,2.8,1.93s-.62,2.56-1.93,2.8-2.56-.62-2.8-1.93c-.24-1.31.62-2.56,1.93-2.8ZM121.86,92.18c-1.31.24-2.56-.62-2.8-1.93s.62-2.56,1.93-2.8,2.56.62,2.8,1.93c.24,1.31-.62,2.56-1.93,2.8ZM127.46,96.05c-1.31.24-2.56-.62-2.8-1.93s.62-2.56,1.93-2.8,2.56.62,2.8,1.93-.62,2.56-1.93,2.8ZM131.32,90.44c-1.31.24-2.56-.63-2.8-1.93s.62-2.56,1.93-2.8,2.56.62,2.8,1.93-.62,2.56-1.93,2.8Z"/>
    <g>
      <path d="M55.53,195.68l-6.02,42.17,5.96.85,6.02-42.17-5.96-.85Z"/>
      <path d="M69.05,227.74l-4.26-4.26,6.28-6.28-6.28-6.28,4.26-4.26,10.54,10.54-10.54,10.54Z"/>
      <path d="M39.92,217.19l6.28,6.28-4.26,4.26-10.54-10.54,10.54-10.54,4.26,4.26-6.28,6.28Z"/>
    </g>
  </g>
</svg>