<?xml version="1.0" encoding="UTF-8"?>
<svg xmlns="http://www.w3.org/2000/svg" viewBox="0 0 562.76 177.57">
  <defs>
    <style>
      .cls-1 {
        fill-rule: evenodd;
      }
    </style>
  </defs>
  <g id="Layer_1">
    <path d="M56.86,41.54c-16.3,11.16-28.44,27.39-35.24,45.55-3.27,8.82-3.69,18.21-5.69,27.28-1.96,9.69-2.96,18.86-4.29,29.09,0,0-1.53.46-1.53.46C2.86,135.36,0,123.95,0,112.92c-.14-11.17,4.84-21.56,9.97-31.12,9.9-18.75,26.46-34.24,46.15-41.67,0,0,.74,1.42.74,1.42h0Z"/>
    <path d="M95.71,27.38c-1.1,2.1-2.3,3.82-3.61,5.63-.94,1.12-1.77,1.99-2.37,3.39-1.1,1.93-3.31-.82-4.41-1.97-.81-.98-1.72-2.27-2.39-3.35,0,0-.5-1.52-.5-1.52-.18-2.42-.2-5.94,1.06-7.9.41-.64.99-.76,1.7-.43,1.36.82,2.6,1.09,4.05,1.53,2.11.84,4.11,1.72,6.08,3.07,0,0,.39,1.55.39,1.55h0Z"/>
    <path d="M233.38,26.01c-17.95-1.36-35.73-.85-53.61.21-3.87.24-9.43.99-13.33,1.51-9.01,1.21-17.95.26-26.89-1.54-4.54-.98-9.09-2.22-13.68-4.35,0,0-.06-1.6-.06-1.6,10.57-5.57,21.9-8.14,33.61-8.66,6.61-.11,13.97,1.34,20.53,1.84,18.2,1.57,36.53,4.88,53.76,11.02,0,0-.33,1.57-.33,1.57h0Z"/>
    <path d="M396.28,57.28c-15.89-1.36-38-2.99-53.59-4.74-6.67-.77-13.53-.55-20.17-1.77-11.37-2.42-22.15-6.75-31.44-14.14,0,0,.35-1.56.35-1.56,4.6-1.23,9.38-1.7,14.07-1.92,9.05-.31,17.97.16,26.61,2.88,4.29,1.31,8.55,2.8,12.88,3.92,17.38,4.52,34.73,9.59,51.63,15.77,0,0-.34,1.56-.34,1.56h0Z"/>
    <path d="M440.39,64.7c-3.25,1.79-6.6,3.19-10.07,4.04-1.51.31-3.36,2.27-4.87.83-2.07-2.03-2.74-4.28-3.41-7.85,0,0,.27-1.58.27-1.58,1.8-3.16,3.17-5.08,5.76-6.36,1.88-.89,2.97,1.55,4.29,2.32,3.01,1.91,5.73,4.3,8.27,7.01,0,0-.24,1.58-.24,1.58h0Z"/>
    <path d="M531.45,64.17c-12.41,12.51-31.64,10.96-47.81,13.39-9.97.89-21.17-3.49-28.32-10.71,0,0,.31-1.57.31-1.57,3.58-1.64,6.9-2.51,10.16-3.19,6.35-1.2,12.53-1.83,18.8-.35,5.32,1.49,13.22,2.43,18.77,3.06,9.2,1.18,18.36,2.11,27.15-1.93,0,0,.95,1.29.95,1.29h0Z"/>
    <path d="M535.65,28.36c2.02-.13,3.55.05,5.39.41,1.15.34,1.99.67,3.27.77,2.24.48-2,3.51-2.88,4.1-.71.44-1.74,1.1-2.48,1.49,0,0-1.49.57-1.49.57-.8.2-2.01.45-2.81.63-.76.09-6.08,1.38-4.71-.15.82-.86,1.16-1.56,1.65-2.55.92-1.55,1.6-2.79,2.7-4.45,0,0,1.38-.81,1.38-.81h0Z"/>
    <path d="M507.25,0c5.35,1.3,10.61,2.79,15.62,4.93,2.41,1.03,5.77.91,7.21,3.56,1.83,3.18,2.44,6.5,1.47,10.72,0,0-1.14,1.12-1.14,1.12-4.02,1.18-6.82,1.67-10.28.69-2.78-.71-3.43-3.94-5.01-5.9-1.64-2.06-3.22-4.25-4.7-6.57-1.46-2.35-2.97-4.68-4.19-7.32l1.03-1.23h0Z"/>
  </g>
  <g id="Layer_2">
    <g>
      <path d="M536.1,46.52c-1.1,0-2.18-.21-3.2-.61l-13.37-5.3v8.55c0,4.15,7.42,7.51,16.57,7.51s16.58-3.36,16.58-7.51v-8.55l-13.37,5.3c-1.02.41-2.1.61-3.2.61Z"/>
      <path d="M561.85,31.95l-23.46-9.3c-1.47-.58-3.11-.58-4.59,0l-23.45,9.3c-.55.22-.91.75-.91,1.34s.36,1.12.91,1.34l3.28,1.3v9.31c-.73.5-1.21,1.33-1.21,2.28,0,.87.4,1.65,1.03,2.15l-1,4.8c-.13.64.03,1.31.44,1.82.42.51,1.04.81,1.7.81h1.19c.66,0,1.28-.3,1.7-.81.42-.51.58-1.18.44-1.82l-1-4.8c.63-.51,1.03-1.28,1.03-2.15,0-.95-.48-1.79-1.21-2.28v-8.08l16.99,6.73c1.52.6,3.22.6,4.74,0l23.38-9.27c.55-.22.91-.75.91-1.34,0-.59-.36-1.12-.91-1.34Z"/>
    </g>
  </g>
  <g id="Layer_3">
    <g>
      <path d="M448.3,63.74l-18.51-24.68c-.36-.47-1.01-.62-1.53-.34l-21.46,11.3,19.99,26.65,21.12-11.12c.31-.17.54-.46.62-.8.08-.35,0-.71-.21-.99Z"/>
      <polygon points="447.54 67.85 426.61 78.82 426.93 79.43 447.86 68.45 447.54 67.85"/>
      <polygon points="426.33 82.49 447.94 71.16 447.62 70.55 426.02 81.88 426.33 82.49"/>
      <path d="M447.95,72.65l-23.08,12.1c-.7.18-.54-.37-.54-1.23.07-2.3.63-4.32,1.25-4.98l-19.98-26.65c-.89,1.07-1.66,4.4-1.03,8.03l19.74,26.31c.14.19.4.25.61.14l23.17-12.27c.21-.11.35-.31.38-.54.03-.23-.05-.46-.22-.63l-.3-.29Z"/>
    </g>
  </g>
  <g id="Layer_4">
    <g id="Page-1">
      <g id="Icon-Set-Filled">
        <path id="camera" class="cls-1" d="M277.16,21.32h-3.95l-1.32-2.63c-.77-1.53-1.18-2.63-2.63-2.63h-15.78c-1.45,0-1.93,1.25-2.63,2.63l-1.32,2.63h-3.95c-2.91,0-5.26,2.36-5.26,5.26v21.05c0,2.91,2.36,5.26,5.26,5.26h31.57c2.91,0,5.26-2.36,5.26-5.26v-21.05c0-2.91-2.36-5.26-5.26-5.26ZM261.38,47.63c-5.81,0-10.52-4.71-10.52-10.52s4.71-10.52,10.52-10.52,10.52,4.71,10.52,10.52-4.71,10.52-10.52,10.52ZM261.38,29.22c-4.36,0-7.89,3.53-7.89,7.89s3.53,7.89,7.89,7.89,7.89-3.53,7.89-7.89-3.53-7.89-7.89-7.89h0Z"/>
      </g>
    </g>
  </g>
  <g id="Layer_5">
    <path d="M118.34,35.89l-5.5-12.55c-2.63-5.54-8.66-8.62-14.7-7.51l-20.81,3.83c-6.04,1.11-10.57,6.13-11.06,12.25l-.67,13.68c-.1,3.91,2.76,7.26,6.64,7.78l.19.02c3.59.48,7.02-1.62,8.23-5.03l1.95-4.46c.46-1.29,1.57-2.24,2.92-2.49l12.69-2.33c1.35-.25,2.73.24,3.62,1.29l3.41,3.47c2.34,2.76,6.3,3.5,9.48,1.77l.17-.09c3.44-1.86,4.92-6.01,3.44-9.63ZM83.62,33.19l-4.32.79.79,4.32-3.76.69-.79-4.32-4.32.79-.69-3.76,4.32-.79-.79-4.32,3.76-.69.79,4.32,4.32-.79.69,3.76h0ZM101.01,20.71c1.31-.24,2.56.62,2.8,1.93s-.62,2.56-1.93,2.8-2.56-.62-2.8-1.93c-.24-1.31.62-2.56,1.93-2.8ZM98.02,31.05c-1.31.24-2.56-.62-2.8-1.93s.62-2.56,1.93-2.8,2.56.62,2.8,1.93c.24,1.31-.62,2.56-1.93,2.8ZM103.62,34.91c-1.31.24-2.56-.62-2.8-1.93s.62-2.56,1.93-2.8,2.56.62,2.8,1.93-.62,2.56-1.93,2.8ZM107.48,29.31c-1.31.24-2.56-.63-2.8-1.93s.62-2.56,1.93-2.8,2.56.62,2.8,1.93-.62,2.56-1.93,2.8Z"/>
  </g>
  <g id="Layer_6">
    <path d="M31.69,134.55l-6.02,42.17,5.96.85,6.02-42.17-5.96-.85Z"/>
    <path d="M45.21,166.6l-4.26-4.26,6.28-6.28-6.28-6.28,4.26-4.26,10.54,10.54-10.54,10.54Z"/>
    <path d="M16.08,156.06l6.28,6.28-4.26,4.26-10.54-10.54,10.54-10.54,4.26,4.26-6.28,6.28Z"/>
  </g>
</svg>